# xmcd
# 
# Track frame offsets:
#     183
#     10395
#     24038
#     34308
#     44820
#     54673
#     72625
#     89800
#     105893
#     119593
#     129210
#     139785
#     151520
#     172910
#     186295
#     200508
#     213060
#     226253
#     240083
#     250950
# 
# Disc length: 3522
# 
# Revision: 4
# Processed by: cddbd v1.5.2PL0 Copyright (c) Steve Scherf et al.
# Submitted via: BonkEnc v1.0.8
# 
DISCID=0a0dc014
DTITLE=John Mayall - London Blues CD 1
DYEAR=1992
DGENRE=Blues
TTITLE0=Crawling Up A Hill
TTITLE1=My Baby Is Sweeter
TTITLE2=Crocodile Walk
TTITLE3=Blues City Shakedown
TTITLE4=I'm Your Witchdoctor
TTITLE5=Telephone Blues
TTITLE6=Bernhard Jenkins
TTITLE7=All Your Love
TTITLE8=Bouble Crossing Time
TTITLE9=Key To Love
TTITLE10=Parchman Farm
TTITLE11=Looking Back
TTITLE12=So Many Roads
TTITLE13=Sitting In The Rain
TTITLE14=A Hard Road
TTITLE15=Dust My Blues
TTITLE16=The Supernatural
TTITLE17=Another Kinda Love
TTITLE18=Leaping Christine
TTITLE19=Burn Out Your Blind Eyes
EXTD=
EXTT0=
EXTT1=
EXTT2=
EXTT3=
EXTT4=
EXTT5=
EXTT6=
EXTT7=
EXTT8=
EXTT9=
EXTT10=
EXTT11=
EXTT12=
EXTT13=
EXTT14=
EXTT15=
EXTT16=
EXTT17=
EXTT18=
EXTT19=
PLAYORDER=
